<?xml version="1.0" ?><!-- Created with Inkscape (http://www.inkscape.org/) --><svg height="1080" id="svg2383" inkscape:output_extension="org.inkscape.output.svg.inkscape" inkscape:version="0.92.3 (2405546, 2018-03-11)" sodipodi:docname="temp.svg" sodipodi:version="0.32" version="1.0" width="1920" xmlns="http://www.w3.org/2000/svg" xmlns:cc="http://creativecommons.org/ns#" xmlns:dc="http://purl.org/dc/elements/1.1/" xmlns:inkscape="http://www.inkscape.org/namespaces/inkscape" xmlns:rdf="http://www.w3.org/1999/02/22-rdf-syntax-ns#" xmlns:sodipodi="http://sodipodi.sourceforge.net/DTD/sodipodi-0.dtd" xmlns:svg="http://www.w3.org/2000/svg" xmlns:xlink="http://www.w3.org/1999/xlink">
  <defs id="defs2385">
    <linearGradient id="linearGradient3190" inkscape:collect="always">
      <stop id="stop3192" offset="0" style="stop-color:#324da7;stop-opacity:1"/>
      <stop id="stop3194" offset="1" style="stop-color:#324da7;stop-opacity:0;"/>
    </linearGradient>
    <linearGradient id="linearGradient3267" inkscape:collect="always">
      <stop id="stop3269" offset="0" style="stop-color:#0000ff;stop-opacity:0"/>
      <stop id="stop3275" offset="0.48768985" style="stop-color:#ffffff;stop-opacity:1"/>
      <stop id="stop3271" offset="1" style="stop-color:#0000ff;stop-opacity:0;"/>
    </linearGradient>
    <inkscape:perspective id="perspective2391" inkscape:persp3d-origin="372.04724 : 350.78739 : 1" inkscape:vp_x="0 : 526.18109 : 1" inkscape:vp_y="0 : 1000 : 0" inkscape:vp_z="744.09448 : 526.18109 : 1" sodipodi:type="inkscape:persp3d"/>
    <linearGradient gradientTransform="matrix(0.4475832,0,0,1.1594093,-317.72844,-354.23847)" gradientUnits="userSpaceOnUse" id="linearGradient3273" inkscape:collect="always" x1="333.26617" x2="1668.8561" xlink:href="#linearGradient3267" y1="671.26709" y2="671.26709"/>
    <linearGradient gradientTransform="matrix(0.4475832,0,0,1.1594093,-317.72845,-255.93349)" gradientUnits="userSpaceOnUse" id="linearGradient3463" inkscape:collect="always" x1="333.26617" x2="1668.8561" xlink:href="#linearGradient3267" y1="671.26709" y2="671.26709"/>
    <linearGradient gradientTransform="translate(-480.00173,0)" gradientUnits="userSpaceOnUse" id="linearGradient3196" inkscape:collect="always" x1="1917.6716" x2="1622.8263" xlink:href="#linearGradient3190" y1="542.59882" y2="542.59882"/>
    <linearGradient gradientTransform="matrix(-1,0,0,1,1920.0025,7.77e-2)" gradientUnits="userSpaceOnUse" id="linearGradient3200" inkscape:collect="always" x1="1917.6716" x2="1622.8263" xlink:href="#linearGradient3190" y1="542.59882" y2="542.59882"/>
    <linearGradient gradientTransform="matrix(-1,0,0,1,1920.0025,7.77e-2)" gradientUnits="userSpaceOnUse" id="linearGradient2451" inkscape:collect="always" x1="1917.6716" x2="1622.8263" xlink:href="#linearGradient3190" y1="542.59882" y2="542.59882"/>
    <linearGradient gradientTransform="translate(-480.00173,0)" gradientUnits="userSpaceOnUse" id="linearGradient2449" inkscape:collect="always" x1="1917.6716" x2="1622.8263" xlink:href="#linearGradient3190" y1="542.59882" y2="542.59882"/>
    <linearGradient gradientTransform="matrix(0.4475832,0,0,1.1594093,-317.72845,-255.93349)" gradientUnits="userSpaceOnUse" id="linearGradient2447" inkscape:collect="always" x1="333.26617" x2="1668.8561" xlink:href="#linearGradient3267" y1="671.26709" y2="671.26709"/>
    <linearGradient gradientTransform="matrix(0.4475832,0,0,1.1594093,-317.72844,-354.23847)" gradientUnits="userSpaceOnUse" id="linearGradient2445" inkscape:collect="always" x1="333.26617" x2="1668.8561" xlink:href="#linearGradient3267" y1="671.26709" y2="671.26709"/>
    <inkscape:perspective id="perspective2443" inkscape:persp3d-origin="372.04724 : 350.78739 : 1" inkscape:vp_x="0 : 526.18109 : 1" inkscape:vp_y="0 : 1000 : 0" inkscape:vp_z="744.09448 : 526.18109 : 1" sodipodi:type="inkscape:persp3d"/>
  </defs>
  <sodipodi:namedview bordercolor="#666666" borderopacity="1.0" gridtolerance="10000" guidetolerance="10" id="base" inkscape:current-layer="layer1" inkscape:cx="308.0757" inkscape:cy="438.36998" inkscape:document-units="px" inkscape:pageopacity="0.0" inkscape:pageshadow="2" inkscape:window-height="975" inkscape:window-maximized="0" inkscape:window-width="1680" inkscape:window-x="75" inkscape:window-y="31" inkscape:zoom="0.5" objecttolerance="10" pagecolor="#ffffff" showgrid="false"/>
  <metadata id="metadata2388">
    <rdf:RDF>
      <cc:Work rdf:about="">
        <dc:format>image/svg+xml</dc:format>
        <dc:type rdf:resource="http://purl.org/dc/dcmitype/StillImage"/>
      </cc:Work>
    </rdf:RDF>
  </metadata>
  <g id="layer1" inkscape:groupmode="layer" inkscape:label="Layer 1" transform="translate(1.9328e-3,0)">
    <rect height="1080.0051" id="rect3160" rx="0" ry="0" style="opacity:0;fill:#e0e7ff;fill-opacity:1;stroke:none;stroke-width:1;stroke-miterlimit:4;stroke-dasharray:none;stroke-opacity:1" width="1920" x="-0.0019328" y="-0.0051269531"/>
    <path d="M 1329.2197,297.95792 C 1291.2575,293.69917 1255.7489,308.29728 1232.9747,333.9681 C 1220.0191,322.07312 1202.6814,313.83179 1182.9776,311.62134 C 1159.5772,308.99618 1137.4988,315.37157 1121.0355,327.69433 C 1108.8497,316.53082 1093.5125,309.10213 1076.3536,307.17717 C 1031.3362,302.12692 990.29783,336.84979 983.14488,385.22587 C 978.53011,383.36341 973.59416,382.0989 968.40875,381.51719 C 965.32267,381.17097 962.28043,381.10347 959.27625,381.25613 C 949.16049,374.84807 937.45759,370.52757 924.69799,369.09615 C 896.96443,365.98489 870.97983,377.11165 854.3201,396.49725 C 837.39093,382.2891 809.15569,371.16886 776.40959,367.49528 C 767.42904,366.48779 758.64535,366.08218 750.23713,366.26229 C 734.168,353.97023 712.89279,345.33496 688.98807,342.65322 C 660.22605,339.42658 633.29327,345.56031 613.39605,357.89968 C 602.28575,305.86197 557.26722,263.97861 499.33303,257.47931 C 427.61783,249.43398 363.16448,298.61366 355.46397,367.25536 C 353.01197,389.11225 356.5865,410.32312 364.94344,429.33868 C 333.37986,440.04994 311.08632,461.29269 308.10606,487.85844 C 304.32167,521.59215 332.78236,553.87652 375.86101,569.69347 C 369.08261,577.8269 364.52943,587.98772 363.26159,599.28915 C 359.81359,630.02424 381.95963,657.76703 412.69473,661.21502 C 417.88014,661.79675 422.97358,661.65738 427.88634,660.86375 C 424.14231,709.62225 456.46667,752.57526 501.4841,757.62551 C 518.64295,759.55046 535.24496,755.70484 549.60145,747.51895 C 562.92504,763.18333 583.04201,774.29239 606.44232,776.91753 C 626.14613,779.12799 644.87902,774.93321 660.14826,766.2046 C 676.66818,796.28362 708.0595,818.38684 746.02167,822.64561 C 777.3413,826.15917 806.97774,816.81701 829.18918,799.02847 C 837.36637,801.84275 846.07541,803.80059 855.14412,804.81796 C 883.86683,808.04019 911.00005,800.95976 931.62197,786.91058 C 941.64518,790.58732 952.31099,793.16644 963.43373,794.41423 C 1021.3679,800.91354 1074.5479,770.0465 1096.9125,721.76415 C 1113.581,738.20562 1138.4852,750.15463 1167.2472,753.38128 C 1191.1519,756.06301 1213.8117,752.35655 1232.205,743.93063 C 1240.3643,745.96935 1249.0195,747.52011 1258.0001,748.52759 C 1290.7462,752.20118 1320.7436,747.61374 1340.4002,737.50992 C 1352.3503,760.10511 1375.2236,776.71295 1402.9571,779.82421 C 1447.0107,784.76634 1486.6821,753.85514 1491.5093,710.82602 C 1492.2779,703.9754 1492.116,697.21973 1491.1246,690.6974 C 1496.1151,692.09664 1501.2612,693.12661 1506.5833,693.72367 C 1558.833,699.58525 1605.9024,662.76845 1611.6491,611.5433 C 1615.3581,578.48152 1600.9364,547.46699 1576.2055,528.04744 C 1584.4233,516.75238 1590.0277,502.73316 1591.7752,487.15655 C 1596.4874,445.15193 1571.21,407.79646 1535.3524,403.77381 C 1530.5195,403.23163 1525.7214,403.3247 1521.0568,403.99068 C 1508.6421,370.5746 1474.4165,344.31619 1431.6793,339.52175 C 1422.6106,338.50438 1413.6843,338.4838 1405.0868,339.41623 C 1387.369,317.14826 1360.5393,301.4715 1329.2197,297.95792 z" id="path3187" sodipodi:nodetypes="ccscscscscscscsscscsscscscscscscscscsscsscsscscc" style="opacity:0.80000000000000004;fill:#ffffff;fill-opacity:1;stroke:#324da7;stroke-width:10;stroke-miterlimit:4;stroke-dasharray:none;stroke-opacity:1"/>
    <text id="text3161" style="font-style:normal;font-variant:normal;font-weight:normal;font-stretch:normal;line-height:0%;font-family:NanumGothic;-inkscape-font-specification:'Bitstream Vera Sans';text-align:center;writing-mode:lr-tb;text-anchor:middle;fill:#000000;fill-opacity:1;stroke:none;stroke-width:4.36010265;stroke-linecap:butt;stroke-linejoin:miter;stroke-miterlimit:4;stroke-dasharray:none;stroke-dashoffset:0;stroke-opacity:1;opacity:1.0" x="962.99561" xml:space="preserve" y="541.1723"><tspan id="tspan3163" sodipodi:role="line" style="font-style:normal;font-variant:normal;font-weight:bold;font-stretch:normal;font-size:139.52261353px;line-height:125%;font-family:NanumGothic;-inkscape-font-specification:'Bitstream Vera Sans Bold';text-align:center;writing-mode:lr-tb;text-anchor:middle;fill:#000000;fill-opacity:1;stroke:none;stroke-width:4.36010265;stroke-miterlimit:4;stroke-dasharray:none;stroke-opacity:1" x="962.99561" y="541.1723">괜찮다고..?</tspan></text>
    <text id="text3170" style="font-style:normal;font-variant:normal;font-weight:normal;font-stretch:normal;line-height:0%;font-family:NanumGothic;-inkscape-font-specification:'Bitstream Vera Sans';text-align:center;writing-mode:lr-tb;text-anchor:middle;fill:#000000;fill-opacity:1;stroke:none;stroke-width:2.81251335;stroke-linecap:butt;stroke-linejoin:miter;stroke-miterlimit:4;stroke-dasharray:none;stroke-dashoffset:0;stroke-opacity:1;opacity:1.0" x="958.92139" xml:space="preserve" y="655.36639"><tspan id="tspan3172" sodipodi:role="line" style="font-style:normal;font-variant:normal;font-weight:bold;font-stretch:normal;font-size:90px;line-height:125%;font-family:NanumGothic;-inkscape-font-specification:'Bitstream Vera Sans Bold';text-align:center;writing-mode:lr-tb;text-anchor:middle;fill:#000000;fill-opacity:1;stroke:none;stroke-width:2.81251335;stroke-miterlimit:4;stroke-dasharray:none;stroke-opacity:1" x="958.92139" y="655.36639">나야 좋지 뭐!</tspan></text>
    <path d="m 730.45246,824.1272 c -19.03706,-4.61556 -38.82424,-15.89866 -53.62518,-30.57832 -7.3859,-7.32536 -14.37976,-15.11272 -15.54194,-17.30522 -2.08176,-3.9274 -2.25578,-3.93198 -11.76132,-0.30948 -5.30658,2.0223 -17.29832,4.15204 -26.64832,4.73276 -26.6834,1.6573 -48.41616,-5.38838 -67.02878,-21.73048 l -6.86982,-6.03178 -11.34166,4.24346 c -19.6135,7.33836 -46.1414,5.58024 -65.60175,-4.34768 -10.31088,-5.26022 -28.29575,-22.38686 -34.34096,-32.70222 -6.75389,-11.52464 -12.08925,-27.98154 -13.7719,-42.47938 l -1.43788,-12.38884 -8.30362,-0.02 c -10.20661,-0.024 -27.97751,-8.00164 -36.98221,-16.60186 -10.17863,-9.72142 -16.76142,-24.27512 -17.85749,-39.4806 -0.77968,-10.81624 -0.0624,-15.28578 4.11161,-25.61954 l 5.05606,-12.51752 -4.86187,-1.84848 c -8.15511,-3.10012 -27.33029,-15.90234 -35.37557,-23.61788 -18.16024,-17.41596 -27.26685,-41.26048 -23.51313,-61.5662 1.15265,-6.23526 4.32784,-15.14564 7.05597,-19.80084 6.56568,-11.20348 22.67255,-25.46335 36.28294,-32.12229 8.25389,-4.03825 10.67972,-6.17623 9.74714,-8.59053 -8.18629,-21.19305 -8.76004,-59.33666 -1.21485,-80.76486 6.7767,-19.24568 16.40519,-35.23334 29.14323,-48.39097 14.87726,-15.3673 30.64384,-25.62164 51.88936,-33.74802 15.40296,-5.89161 17.66779,-6.20499 45.21518,-6.25634 25.09838,-0.0468 30.88354,0.57169 43,4.59712 35.1164,11.66666 65.83974,37.79189 80.80626,68.71271 4.50656,9.31053 8.19374,18.53379 8.19374,20.49614 0,2.65199 0.8985,3.17215 3.5,2.02624 20.57658,-9.06356 32.12828,-11.50964 54.5,-11.54041 27.12624,-0.0373 41.94976,3.37168 64,14.71816 12.6142,6.49094 18.17,8.06303 34.93048,9.88408 30.97036,3.36497 54.36386,10.4047 73.41756,22.09331 8.25496,5.06404 9.6447,5.37717 11.88498,2.67781 5.08908,-6.13197 19.4036,-14.55464 31.93282,-18.78931 17.88868,-6.04607 43.6532,-4.96943 60.83416,2.54211 6.6,2.88553 16.05,5.77828 21,6.42834 l 9,1.18192 3.42546,-11.70161 c 4.1465,-14.16477 16.85434,-33.74035 28.21784,-43.46795 4.5962,-3.93445 14.0926,-9.97749 21.103,-13.42897 10.6315,-5.23421 15.6856,-6.41594 30.4615,-7.12238 20.1306,-0.96246 32.3598,2.05317 48.6026,11.985 l 9.8105,5.99867 10.5422,-5.16205 c 28.674,-14.04026 66.126,-11.62203 92.7364,5.98788 l 7.9055,5.23163 9.5975,-7.99311 c 44.3674,-36.95071 111.3173,-34.53104 155.2386,5.61056 10.8912,9.95399 10.9558,9.98004 24.7191,9.98004 38.1071,0 80.514,23.84177 96.5081,54.25821 4.7093,8.95591 5.2231,9.29482 15.7336,10.3796 45.8363,4.73073 73.7209,58.01257 56.522,108.00211 -2.0272,5.89202 -4.8597,12.59252 -6.2945,14.89002 -2.3451,3.75506 -1.8062,5.05116 5.3312,12.82366 35.8814,39.07386 34.8885,95.90366 -2.3266,133.16666 -20.9844,21.01144 -51.1093,32.02008 -79.581,29.08154 l -10.6953,-1.10384 -2.1069,14.19576 c -2.7867,18.77578 -9.996,33.95016 -22.3209,46.98194 -18.957,20.04418 -45.9731,29.5186 -72.4554,25.40974 -21.1045,-3.27448 -34.2616,-10.1165 -49.7247,-25.85818 l -13.5111,-13.75448 -11.7194,4.0164 c -15.164,5.19692 -52.268,6.96054 -76.5701,3.6395 -15.4137,-2.10638 -18.9975,-1.99926 -27.2889,0.81576 -34.1559,11.59622 -80.9384,5.52246 -110.584,-14.35706 -7.0884,-4.75328 -13.0542,-8.40496 -13.2573,-8.11484 -0.2031,0.29012 -3.7591,5.71172 -7.9022,12.048 -16.5343,25.28674 -50.992,47.97326 -83.1168,54.72308 -17.61602,3.70132 -49.54668,2.75664 -64.5451,-1.90962 -9.31536,-2.89816 -9.8208,-2.832 -21,2.74848 -6.3002,3.14496 -16.81898,7.113 -23.3751,8.81784 -14.53602,3.77994 -42.1174,3.96994 -57.30558,0.39478 -9.612,-2.26258 -11.76832,-2.22362 -15,0.27094 -7.63548,5.89396 -32.11184,16.13 -43.64154,18.25094 -15.70914,2.88978 -37.44248,2.50206 -51.55592,-0.91976 z m 64.0675,-11.01162 c 6.95434,-2.39262 17.30434,-7.5069 23,-11.36506 10.06004,-6.81456 10.61272,-6.94568 19.35574,-4.5914 14.2345,3.833 38.57016,4.86552 52.4036,2.2234 6.92802,-1.32322 19.43168,-5.5752 27.78592,-9.44886 l 15.1895,-7.04302 10.8105,3.25818 c 28.71988,8.6559 63.71728,5.27728 93.21108,-8.99854 21.369,-10.3432 42.967,-30.72862 52.3778,-49.43724 l 6.2963,-12.51698 10.3588,8.18818 c 13.9653,11.03888 29.6237,18.65338 47.019,22.86464 18.8075,4.5532 52.3213,3.30756 68.6608,-2.55196 10.2432,-3.67334 12.2004,-3.77508 25,-1.29964 28.3844,5.4896 66.4608,2.51648 87.6155,-6.84126 l 8.8221,-3.90244 2.2171,4.8659 c 4.1092,9.01876 21.0816,25.0803 33.1995,31.41774 11.3702,5.94644 13.2434,6.2928 34.0325,6.2928 20.2953,0 22.8845,-0.44806 33.414,-5.78242 14.5549,-7.37364 28.2202,-21.03886 35.1509,-35.15092 4.461,-9.0833 5.5592,-14.38038 6.1278,-29.5564 l 0.6927,-18.48974 5.3073,1.48974 c 2.919,0.81936 15.2073,1.48974 27.3073,1.48974 21.2992,0 22.4809,-0.23514 37.0982,-7.3819 34.8099,-17.01948 55.1873,-54.3036 49.9379,-91.37066 -2.4681,-17.42846 -13.1648,-38.65496 -25.6548,-50.90948 l -9.8477,-9.66206 6.7994,-13.33794 c 16.6793,-32.71858 11.4071,-70.00295 -13.1463,-92.96983 -10.9569,-10.24889 -27.937,-16.58113 -39.4519,-14.71252 -6.5468,1.06239 -6.8868,0.77289 -12.0749,-10.28122 -14.6736,-31.26409 -55.0182,-54.25775 -95.3533,-54.34483 l -13.6933,-0.0296 -12.7842,-11.7144 c -26.5311,-24.3109 -61.2701,-34.48426 -95.9618,-28.10255 -17.3531,3.1922 -38.2082,13.61482 -51.3543,25.66505 l -11.4869,10.52943 -6.2982,-5.29955 c -13.8558,-11.65888 -35.4747,-19.10437 -55.3263,-19.05424 -15.7231,0.0397 -37.4559,7.24382 -46.9361,15.5586 -3.2321,2.83479 -4.002,2.65273 -9,-2.1281 -3.006,-2.87545 -10.8655,-7.75398 -17.4655,-10.84117 -10.5135,-4.91776 -14.3536,-5.61203 -31,-5.60469 -16.7328,0.007 -20.3585,0.67449 -30.3844,5.59057 -23.705,11.62337 -42.6925,36.17872 -47.85582,61.88884 l -2.1583,10.74694 -12.30074,-2.80031 c -12.47156,-2.83919 -15.63892,-3.81666 -35.30074,-10.89397 -23.93728,-8.61627 -55.0418,-1.72374 -74.92338,16.60245 l -9.22278,8.50127 -5.7994,-4.28768 c -19.26592,-14.24392 -49.47832,-24.06334 -79.05444,-25.69373 -16.49874,-0.9095 -21.22544,-1.92274 -27,-5.7879 -18.8354,-12.60735 -42.76716,-19.49711 -68,-19.57666 -20.2374,-0.0638 -34.76674,3.06198 -50.87316,10.94463 -6.53024,3.19597 -12.42838,5.12377 -13.107,4.28401 -0.6786,-0.83976 -3.22456,-7.93378 -5.65768,-15.76448 -10.86706,-34.97442 -42.54726,-66.12937 -79.36216,-78.04633 -47.23881,-15.29116 -97.66489,-3.81133 -131.64269,29.96933 -29.22017,29.05063 -40.90705,67.80236 -32.46312,107.64219 1.5536,7.33015 4.21505,16.01611 5.91432,19.30215 l 3.08958,5.9746 -14.90901,7.08025 c -38.71202,18.38427 -52.74395,49.15533 -36.88634,80.88921 8.14714,16.30388 23.77299,30.2919 45.94816,41.13208 l 17.63595,8.62122 -4.81033,5.83646 c -5.52004,6.6976 -10.87652,22.51828 -10.87652,32.12446 0,10.65126 7.33502,27.26264 15.48713,35.07318 11.83808,11.34208 19.57135,14.48582 35.83383,14.56718 l 14.32096,0.0716 0.003,13.38114 c 0.006,33.22022 17.90373,63.25146 45.87952,76.98458 10.27076,5.04182 13.57643,5.63198 31.476,5.61932 16.74958,-0.012 21.71636,-0.7874 30.56086,-4.77206 l 10.56084,-4.75792 7.43914,7.4717 c 13.83508,13.8956 37.49218,23.04888 59.43914,22.99786 10.44404,-0.0242 26.56408,-4.21798 41.36482,-10.76126 2.52542,-1.11648 4.2003,0.128 6.71394,4.98894 5.1224,9.90564 20.62146,25.6362 33.54036,34.04136 10.57116,6.87768 28.55536,14.07382 41.38088,16.55798 11.08356,2.14678 41.20168,-0.58524 53.64426,-4.86608 z" id="path30" inkscape:connector-curvature="0" style="fill:#000000;stroke-width:2" transform="translate(-0.0019328)"/>
  </g>
</svg>